<svg width="17" height="16" viewBox="0 0 17 16" fill="none" xmlns="http://www.w3.org/2000/svg">
<path d="M7.85191 1.39361C8.15691 0.484266 9.4431 0.484267 9.74809 1.39361L10.996 5.11422C11.1327 5.52166 11.5144 5.79623 11.9441 5.79623L15.9132 5.79623C16.8896 5.79623 17.2872 7.05201 16.4887 7.61398L13.3329 9.83517C12.9712 10.0897 12.8197 10.5516 12.9604 10.9709L14.1786 14.603C14.4857 15.5188 13.4448 16.2947 12.6549 15.7388L9.37556 13.4307C9.03032 13.1877 8.56968 13.1877 8.22444 13.4307L4.94506 15.7388C4.1552 16.2947 3.11426 15.5188 3.42141 14.603L4.63963 10.9709C4.78027 10.5516 4.62877 10.0897 4.2671 9.83517L1.11125 7.61399C0.312798 7.05201 0.710419 5.79623 1.68682 5.79623L5.6559 5.79623C6.08565 5.79623 6.46734 5.52166 6.604 5.11422L7.85191 1.39361Z" fill="url(#paint0_linear_307_6268)"/>
<defs>
<linearGradient id="paint0_linear_307_6268" x1="8.8" y1="-1.43311" x2="8.8" y2="19.4917" gradientUnits="userSpaceOnUse">
<stop stop-color="#F57F3D"/>
<stop offset="1" stop-color="#D7392F"/>
</linearGradient>
</defs>
</svg>
