<svg width="16" height="15" viewBox="0 0 16 15" fill="none" xmlns="http://www.w3.org/2000/svg">
<path fill-rule="evenodd" clip-rule="evenodd" d="M12 4.97545H11.0674C10.6377 4.97545 10.256 4.70088 10.1194 4.29345L8.90806 0.682004C8.60306 -0.227337 7.31687 -0.227334 7.01187 0.682007L5.80058 4.29345C5.66392 4.70089 5.28223 4.97545 4.85249 4.97545H1.00189C0.025496 4.97545 -0.372128 6.23123 0.426328 6.79321L3.48632 8.94692C3.84798 9.20147 3.99948 9.66337 3.85885 10.0827L2.67724 13.6056C2.37009 14.5214 3.41103 15.2973 4.20089 14.7414L7.3844 12.5007C7.72964 12.2577 8.19029 12.2577 8.53553 12.5007L11.719 14.7414C11.8102 14.8055 11.9046 14.8519 12 14.8824V4.97545Z" fill="url(#paint0_linear_2617_7113)"/>
<path fill-rule="evenodd" clip-rule="evenodd" d="M11 4.9646C11.0483 4.97179 11.0976 4.97549 11.1475 4.97549H14.9981C15.9745 4.97549 16.3721 6.23127 15.5737 6.79325L12.5137 8.94696C12.152 9.20151 12.0005 9.66341 12.1412 10.0827L13.3228 13.6057C13.6299 14.5214 12.589 15.2973 11.7991 14.7414L11 14.179V4.9646Z" fill="#C2C2C2"/>
<defs>
<linearGradient id="paint0_linear_2617_7113" x1="6" y1="0" x2="6" y2="14.9281" gradientUnits="userSpaceOnUse">
<stop stop-color="#F57F3D"/>
<stop offset="1" stop-color="#D7392F"/>
</linearGradient>
</defs>
</svg>
