<svg width="16" height="15" viewBox="0 0 16 15" fill="none" xmlns="http://www.w3.org/2000/svg">
<path fill-rule="evenodd" clip-rule="evenodd" d="M8.15715 0.018833C7.70115 -0.0692773 7.18971 0.151781 7.01187 0.682007L5.80058 4.29345C5.66392 4.70089 5.28223 4.97545 4.85249 4.97545H1.00189C0.025496 4.97545 -0.372128 6.23123 0.426328 6.79321L3.48632 8.94692C3.84798 9.20147 3.99948 9.66337 3.85885 10.0827L2.67724 13.6056C2.37009 14.5214 3.41103 15.2973 4.20089 14.7414L7.3844 12.5007C7.61363 12.3394 7.89373 12.2852 8.15715 12.3381V0.018833Z" fill="url(#paint0_linear_2613_7096)"/>
<path fill-rule="evenodd" clip-rule="evenodd" d="M7.84285 0.018833C8.29885 -0.0692773 8.81029 0.151781 8.98813 0.682007L10.1994 4.29345C10.3361 4.70089 10.7178 4.97545 11.1475 4.97545H14.9981C15.9745 4.97545 16.3721 6.23123 15.5737 6.79321L12.5137 8.94692C12.152 9.20147 12.0005 9.66337 12.1412 10.0827L13.3228 13.6056C13.6299 14.5214 12.589 15.2973 11.7991 14.7414L8.6156 12.5007C8.38637 12.3394 8.10627 12.2852 7.84285 12.3381V0.018833Z" fill="#C2C2C2"/>
<defs>
<linearGradient id="paint0_linear_2613_7096" x1="4.07858" y1="0" x2="4.07858" y2="14.9281" gradientUnits="userSpaceOnUse">
<stop stop-color="#F57F3D"/>
<stop offset="1" stop-color="#D7392F"/>
</linearGradient>
</defs>
</svg>
